<?xml version="1.0" encoding="UTF-8" standalone="no"?>
<!-- Created with Inkscape (http://www.inkscape.org/) -->
<svg
   xmlns:dc="http://purl.org/dc/elements/1.1/"
   xmlns:cc="http://creativecommons.org/ns#"
   xmlns:rdf="http://www.w3.org/1999/02/22-rdf-syntax-ns#"
   xmlns:svg="http://www.w3.org/2000/svg"
   xmlns="http://www.w3.org/2000/svg"
   xmlns:sodipodi="http://sodipodi.sourceforge.net/DTD/sodipodi-0.dtd"
   xmlns:inkscape="http://www.inkscape.org/namespaces/inkscape"
   width="744.09448819"
   height="1052.3622047"
   id="svg2"
   sodipodi:version="0.32"
   inkscape:version="0.46"
   sodipodi:docname="geoconme.svg"
   inkscape:output_extension="org.inkscape.output.svg.inkscape">
  <defs
     id="defs4">
    <inkscape:perspective
       sodipodi:type="inkscape:persp3d"
       inkscape:vp_x="0 : 526.18109 : 1"
       inkscape:vp_y="0 : 1000 : 0"
       inkscape:vp_z="744.09448 : 526.18109 : 1"
       inkscape:persp3d-origin="372.04724 : 350.78739 : 1"
       id="perspective10" />
    <inkscape:perspective
       id="perspective2573"
       inkscape:persp3d-origin="156.1405 : 100.08333 : 1"
       inkscape:vp_z="312.28101 : 150.125 : 1"
       inkscape:vp_y="0 : 1000 : 0"
       inkscape:vp_x="0 : 150.125 : 1"
       sodipodi:type="inkscape:persp3d" />
  </defs>
  <sodipodi:namedview
     id="base"
     pagecolor="#ffffff"
     bordercolor="#666666"
     borderopacity="1.0"
     gridtolerance="10000"
     guidetolerance="10"
     objecttolerance="10"
     inkscape:pageopacity="0.0"
     inkscape:pageshadow="2"
     inkscape:zoom="0.35"
     inkscape:cx="375"
     inkscape:cy="520"
     inkscape:document-units="px"
     inkscape:current-layer="layer1"
     showgrid="false"
     showguides="true"
     inkscape:guide-bbox="true" />
  <metadata
     id="metadata7">
    <rdf:RDF>
      <cc:Work
         rdf:about="">
        <dc:format>image/svg+xml</dc:format>
        <dc:type
           rdf:resource="http://purl.org/dc/dcmitype/StillImage" />
      </cc:Work>
    </rdf:RDF>
  </metadata>
  <g
     inkscape:label="Layer 1"
     inkscape:groupmode="layer"
     id="layer1">
    <rect
       style="opacity:1;fill:#000000;fill-opacity:1;stroke:none;stroke-width:0.60000002;stroke-miterlimit:4;stroke-dasharray:none;stroke-opacity:1"
       id="rect2612"
       width="348.57144"
       height="313.73834"
       x="174.28572"
       y="176.28741"
       inkscape:export-filename="/tmp/test.png"
       inkscape:export-xdpi="90"
       inkscape:export-ydpi="90" />
    <g
       id="g2576"
       transform="translate(193.29706,185.09633)"
       inkscape:export-filename="/tmp/test.png"
       inkscape:export-xdpi="90"
       inkscape:export-ydpi="90">
      <path
         id="path2500"
         d="M 251.975,156.127 C 251.412,143.728 249.552,131.214 244.778,119.672 C 240.268,108.771 233.404,98.382 225.16,89.95 C 216.711,81.307 207.326,74.158 196.258,69.227 C 185.106,64.255 173.215,60.998 160.994,60.298 C 137.996,58.976 114.552,66.673 96.494,80.905 C 79.306,94.454 66.992,113.968 62.16,135.309 C 56.906,158.517 60.808,184.316 73.214,204.708 C 76.33,209.829 79.553,214.898 83.656,219.294 C 87.703,223.629 92.016,227.836 96.676,231.51 C 105.97,238.837 116.583,244.379 127.903,247.835 C 150.351,254.689 174.894,253.035 196.203,243.189 C 215.889,234.088 233.066,217.644 242.349,197.965 C 245.304,191.7 247.392,185.027 249.09,178.325 C 250.955,170.973 251.632,163.688 251.975,156.127"
         style="fill:#848484" />
      <path
         id="path2502"
         d="M 251.735,155.887 C 251.735,179.12 243.15,202.018 227.785,219.468 C 220.033,228.274 210.154,236.383 199.576,241.495 C 188.533,246.835 176.824,250.384 164.605,251.588 C 140.739,253.943 116.027,246.611 97.131,231.848 C 79.999,218.458 66.945,198.483 62.414,177.159 C 59.908,165.366 59.058,152.245 61.244,140.337 C 63.393,128.627 67.387,116.681 73.71,106.563 C 79.937,96.6 87.63,87.309 97.105,80.278 C 101.869,76.744 106.879,73.47 112.055,70.571 C 117.372,67.592 123.205,65.731 129.028,64.001 C 152.122,57.141 178.148,59.306 199.506,70.581 C 204.668,73.308 209.828,76.305 214.461,79.876 C 219.113,83.46 223.43,87.853 227.371,92.196 C 235.275,100.905 241.191,110.734 245.319,121.722 C 248.841,131.108 251.591,141.568 251.732,151.664 C 251.75,152.959 251.752,154.256 251.728,155.552 C 251.714,156.259 246.47,155.89 245.611,155.89 C 239.644,155.89 233.677,155.89 227.711,155.89 C 203.78,155.89 179.852,155.89 155.919,155.89 C 187.86,155.887 219.794,155.887 251.735,155.887"
         style="fill:#848484" />
      <path
         id="path2504"
         d="M 251.735,155.887 C 251.735,179.12 243.15,202.018 227.785,219.468 C 220.033,228.274 210.154,236.383 199.576,241.495 C 188.533,246.835 176.824,250.384 164.605,251.588 C 140.739,253.943 116.027,246.611 97.131,231.848 C 79.999,218.458 66.945,198.483 62.414,177.159 C 59.908,165.366 59.058,152.245 61.244,140.337 C 63.393,128.627 67.387,116.681 73.71,106.563 C 79.937,96.6 87.63,87.309 97.105,80.278 C 101.869,76.744 106.879,73.47 112.055,70.571 C 117.372,67.592 123.205,65.731 129.028,64.001 C 152.122,57.141 178.148,59.306 199.506,70.581 C 204.668,73.308 209.828,76.305 214.461,79.876 C 219.113,83.46 223.43,87.853 227.371,92.196 C 235.275,100.905 241.191,110.734 245.319,121.722 C 249.451,132.716 251.735,144.117 251.735,155.887"
         style="fill:none;stroke:#010101;stroke-width:0.2402;stroke-linecap:square;stroke-miterlimit:10" />
      <path
         id="path2506"
         d="M 227.955,156.127 C 227.316,143.95 224.885,132.383 218.924,121.647 C 213.428,111.748 205.724,103.134 196.363,96.746 C 176.856,83.434 150.95,80.188 129.039,89.382 C 118.259,93.905 107.88,101.011 100.483,110.13 C 93.167,119.151 88.027,130.116 85.59,141.437 C 82.991,153.503 83.735,165.578 87.332,177.365 C 89.076,183.084 91.349,188.629 94.575,193.676 C 96.095,196.057 97.67,198.428 99.457,200.616 C 101.265,202.83 103.061,205.381 105.223,207.254 C 109.722,211.155 114.237,215.007 119.377,218.053 C 124.544,221.114 130.093,223.539 135.856,225.233 C 147.563,228.671 160.483,229.1 172.332,226.092 C 178.373,224.559 184.033,222.699 189.51,219.677 C 194.608,216.864 199.078,213.83 203.44,209.963 C 212.169,202.225 219.09,192.374 223.192,181.434 C 226.218,173.355 227.501,164.706 227.955,156.127"
         style="fill:#ffffff;stroke:#ffffff;stroke-width:0.2402;stroke-linecap:square;stroke-miterlimit:10" />
      <path
         id="path2508"
         d="M 227.714,156.127 C 226.943,168.077 224.86,179.615 219.173,190.279 C 213.935,200.109 205.819,208.685 196.784,215.162 C 192.065,218.543 186.772,221.009 181.417,223.205 C 175.855,225.484 170.432,226.48 164.507,227.297 C 158.536,228.121 152.433,228.127 146.456,227.337 C 140.667,226.572 134.487,225.249 129.119,222.911 C 118.5,218.288 108.983,211.769 101.519,202.894 C 94.021,193.98 88.356,183.337 85.89,171.9 C 80.991,149.179 87.136,124.443 103.008,107.286 C 118.175,90.89 140.983,81.955 163.256,84.574 C 169.117,85.263 174.781,86.147 180.254,88.422 C 185.483,90.595 190.662,92.958 195.457,95.988 C 205.11,102.086 212.639,111.068 218.467,120.783 C 224.966,131.607 226.916,143.722 227.714,156.127 C 203.784,156.127 179.855,156.127 155.925,156.127 C 179.855,156.127 203.785,156.127 227.714,156.127"
         style="fill:#ffffff" />
      <path
         id="path2510"
         d="M 227.714,156.127 C 226.943,168.077 224.86,179.615 219.173,190.279 C 213.935,200.109 205.819,208.685 196.784,215.162 C 192.065,218.543 186.772,221.009 181.417,223.205 C 175.855,225.484 170.432,226.48 164.507,227.297 C 158.536,228.121 152.433,228.127 146.456,227.337 C 140.667,226.572 134.487,225.249 129.119,222.911 C 118.5,218.288 108.983,211.769 101.519,202.894 C 94.021,193.98 88.356,183.337 85.89,171.9 C 80.991,149.179 87.136,124.443 103.008,107.286 C 118.175,90.89 140.983,81.955 163.256,84.574 C 169.117,85.263 174.781,86.147 180.254,88.422 C 185.483,90.595 190.662,92.958 195.457,95.988 C 205.11,102.086 212.639,111.068 218.467,120.783 C 224.966,131.607 226.916,143.722 227.714,156.127"
         style="fill:none;stroke:#010101;stroke-width:0.2402;stroke-linecap:square;stroke-miterlimit:10" />
      <path
         id="path2512"
         d="M 156.14,154.207 C 156.062,102.812 155.979,51.417 155.9,0.021 C 160.61,25.931 165.324,51.841 170.033,77.752 C 172.385,90.678 174.734,103.605 177.086,116.533 C 177.648,119.624 178.211,122.714 178.772,125.807 C 179.055,127.351 179.334,128.898 179.616,130.442 C 179.96,132.327 179.636,132.391 178.378,133.651 C 173.851,138.179 169.321,142.708 164.792,147.236 C 161.829,150.199 158.866,153.164 155.902,156.127 C 155.981,155.486 156.06,154.848 156.14,154.207"
         style="fill:#010101" />
      <path
         id="path2514"
         d="M 156.14,154.207 C 156.062,102.812 155.979,51.417 155.9,0.021 C 160.61,25.931 165.324,51.841 170.033,77.752 C 172.385,90.678 174.734,103.605 177.086,116.533 C 177.648,119.624 178.211,122.714 178.772,125.807 C 179.055,127.351 179.334,128.898 179.616,130.442 C 179.96,132.327 179.636,132.391 178.378,133.651 C 173.851,138.179 169.321,142.708 164.792,147.236 C 161.829,150.199 158.866,153.164 155.902,156.127"
         style="fill:none;stroke:#010101;stroke-width:0.2402;stroke-linecap:square;stroke-miterlimit:10" />
      <path
         id="path2516"
         d="M 156.14,154.207 C 208.18,154.848 260.218,155.488 312.257,156.127 C 286.298,160.791 260.339,165.455 234.378,170.119 C 221.427,172.445 208.478,174.773 195.524,177.099 C 192.426,177.655 189.331,178.21 186.233,178.767 C 184.685,179.044 183.136,179.325 181.588,179.603 C 179.697,179.943 179.623,179.613 178.352,178.355 C 173.786,173.834 169.217,169.31 164.651,164.791 C 162.696,162.855 160.743,160.919 158.788,158.982 C 157.943,158.15 156.907,157.345 156.225,156.373 C 155.779,155.74 156.052,154.907 156.14,154.207"
         style="fill:#010101" />
      <path
         id="path2518"
         d="M 156.14,154.207 C 208.18,154.848 260.218,155.488 312.257,156.127 C 286.298,160.791 260.339,165.455 234.378,170.119 C 221.427,172.445 208.478,174.773 195.524,177.099 C 192.426,177.655 189.331,178.21 186.233,178.767 C 184.685,179.044 183.136,179.325 181.588,179.603 C 179.697,179.943 179.623,179.613 178.352,178.355 C 173.786,173.834 169.217,169.31 164.651,164.791 C 161.734,161.9 158.816,159.018 155.9,156.127"
         style="fill:none;stroke:#010101;stroke-width:0.2402;stroke-linecap:square;stroke-miterlimit:10" />
      <path
         id="path2520"
         d="M 156.14,154.207 C 104.101,154.848 52.06,155.49 0.021,156.127 C 25.944,151.405 51.867,146.683 77.79,141.963 C 90.705,139.609 103.621,137.258 116.536,134.905 C 119.586,134.35 122.636,133.794 125.685,133.238 C 127.21,132.962 128.735,132.683 130.26,132.406 C 131.911,132.104 131.935,132.158 133.023,133.252 C 137.579,137.808 142.135,142.363 146.691,146.919 C 149.76,149.988 152.831,153.059 155.9,156.127 C 155.981,155.486 156.06,154.848 156.14,154.207"
         style="fill:#010101" />
      <path
         id="path2522"
         d="M 156.14,154.207 C 104.101,154.848 52.06,155.49 0.021,156.127 C 25.944,151.405 51.867,146.683 77.79,141.963 C 90.705,139.609 103.621,137.258 116.536,134.905 C 119.586,134.35 122.636,133.794 125.685,133.238 C 127.21,132.962 128.735,132.683 130.26,132.406 C 131.911,132.104 131.935,132.158 133.023,133.252 C 137.579,137.808 142.135,142.363 146.691,146.919 C 149.76,149.988 152.831,153.059 155.9,156.127"
         style="fill:none;stroke:#010101;stroke-width:0.2402;stroke-linecap:square;stroke-miterlimit:10" />
      <path
         id="path2524"
         d="M 156.14,154.207 C 151.674,158.937 147.208,163.669 142.742,168.4 C 140.598,170.671 138.454,172.939 136.311,175.212 C 135.281,176.303 134.249,177.395 133.219,178.486 C 131.871,179.914 131.886,179.924 132.274,181.861 C 134.845,194.742 137.417,207.623 139.988,220.505 C 145.138,246.305 150.287,272.104 155.438,297.901 C 155.592,298.677 155.747,299.453 155.901,300.225 C 155.901,275.893 155.901,251.561 155.901,227.229 C 155.901,214.884 155.901,202.54 155.901,190.194 C 155.901,184.254 155.901,178.309 155.901,172.37 C 155.9,166.386 155.397,160.152 156.14,154.207"
         style="fill:#010101" />
      <path
         id="path2526"
         d="M 156.14,154.207 C 151.674,158.937 147.208,163.669 142.742,168.4 C 140.598,170.671 138.454,172.939 136.311,175.212 C 135.281,176.303 134.249,177.395 133.219,178.486 C 131.871,179.914 131.886,179.924 132.274,181.861 C 134.845,194.742 137.417,207.623 139.988,220.505 C 145.138,246.305 150.287,272.104 155.438,297.901 C 155.592,298.677 155.747,299.453 155.901,300.225 C 155.901,252.192 155.901,204.16 155.901,156.125"
         style="fill:none;stroke:#010101;stroke-width:0.2402;stroke-linecap:square;stroke-miterlimit:10" />
      <path
         id="path2528"
         d="M 179.677,130.91 C 187.764,123.306 195.85,115.701 203.938,108.098 C 197.876,111.067 191.815,114.037 185.753,117.006 C 184.444,117.647 183.137,118.287 181.829,118.928 C 180.544,119.557 179.917,119.599 179.917,121.039 C 179.917,124.729 179.917,128.42 179.917,132.111 C 179.837,131.709 179.757,131.311 179.677,130.91"
         style="fill:#ffffff" />
      <path
         id="path2530"
         d="M 179.677,130.91 C 187.764,123.306 195.85,115.701 203.938,108.098 C 197.876,111.067 191.815,114.037 185.753,117.006 C 184.444,117.647 183.137,118.287 181.829,118.928 C 180.544,119.557 179.917,119.599 179.917,121.039 C 179.917,124.729 179.917,128.42 179.917,132.111"
         style="fill:none;stroke:#010101;stroke-width:0.2402;stroke-linecap:square;stroke-miterlimit:10" />
      <path
         id="path2532"
         d="M 179.677,130.91 C 187.764,123.306 195.85,115.701 203.938,108.098 C 200.582,114.807 197.226,121.517 193.871,128.224 C 193.4,129.165 192.748,131.477 191.858,132.042 C 191.107,132.52 189.171,132.11 188.349,132.11 C 186.538,132.11 184.728,132.11 182.915,132.11 C 182.048,132.11 181.181,132.11 180.311,132.11 C 179.636,132.11 179.768,131.363 179.677,130.91"
         style="fill:#010101" />
      <path
         id="path2534"
         d="M 179.677,130.91 C 187.764,123.306 195.85,115.701 203.938,108.098 C 200.908,114.157 197.876,120.217 194.846,126.276 C 194.192,127.584 193.536,128.893 192.882,130.201 C 192.233,131.498 192.185,132.111 190.727,132.111 C 187.124,132.111 183.521,132.111 179.917,132.111"
         style="fill:none;stroke:#010101;stroke-width:0.2402;stroke-linecap:square;stroke-miterlimit:10" />
      <path
         id="path2536"
         d="M 131.642,132.11 C 123.716,124.106 115.789,116.101 107.863,108.097 C 110.85,114.069 113.836,120.039 116.823,126.012 C 117.49,127.347 118.158,128.683 118.826,130.018 C 119.402,131.17 119.493,132.11 120.856,132.11 C 124.451,132.11 128.047,132.11 131.642,132.11"
         style="fill:#ffffff" />
      <path
         id="path2538"
         d="M 131.642,132.11 C 123.716,124.106 115.789,116.101 107.863,108.097 C 111.866,116.101 115.869,124.105 119.872,132.11"
         style="fill:none;stroke:#010101;stroke-width:0.2402;stroke-linecap:square;stroke-miterlimit:10" />
      <path
         id="path2540"
         d="M 131.642,132.11 C 123.716,124.106 115.789,116.101 107.863,108.097 C 113.924,111.066 119.986,114.036 126.047,117.005 C 127.355,117.646 128.664,118.286 129.972,118.927 C 131.259,119.558 131.887,119.593 131.859,121.038 C 131.786,124.729 131.714,128.42 131.642,132.11"
         style="fill:#010101" />
      <path
         id="path2542"
         d="M 131.642,132.11 C 123.716,124.106 115.789,116.101 107.863,108.097 C 115.869,112.02 123.875,115.94 131.882,119.863"
         style="fill:none;stroke:#010101;stroke-width:0.2402;stroke-linecap:square;stroke-miterlimit:10" />
      <path
         id="path2544"
         d="M 131.642,179.902 C 123.716,187.91 115.789,195.914 107.863,203.92 C 112.118,201.836 116.374,199.75 120.631,197.666 C 122.758,196.622 124.886,195.581 127.014,194.538 C 128.172,193.971 132.014,192.878 131.944,191.359 C 131.882,190.004 132.6,180.023 131.642,179.902"
         style="fill:#ffffff" />
      <path
         id="path2546"
         d="M 131.642,179.902 C 123.716,187.91 115.789,195.914 107.863,203.92 C 113.924,200.952 119.986,197.982 126.047,195.014 C 127.355,194.372 128.664,193.733 129.972,193.091 C 131.255,192.462 131.882,192.419 131.882,190.981 C 131.882,187.289 131.882,183.596 131.882,179.905"
         style="fill:none;stroke:#010101;stroke-width:0.2402;stroke-linecap:square;stroke-miterlimit:10" />
      <path
         id="path2548"
         d="M 131.642,179.902 C 123.716,187.91 115.789,195.914 107.863,203.92 C 110.849,197.948 113.836,191.977 116.823,186.002 C 117.49,184.666 118.158,183.331 118.826,181.996 C 119.402,180.844 119.493,179.902 120.856,179.902 C 124.451,179.902 128.047,179.902 131.642,179.902"
         style="fill:#010101" />
      <path
         id="path2550"
         d="M 131.642,179.902 C 123.716,187.91 115.789,195.914 107.863,203.92 C 111.866,195.914 115.869,187.91 119.872,179.902"
         style="fill:none;stroke:#010101;stroke-width:0.2402;stroke-linecap:square;stroke-miterlimit:10" />
      <path
         id="path2552"
         d="M 179.677,179.902 C 187.764,187.91 195.85,195.914 203.938,203.92 C 200.908,197.859 197.876,191.8 194.846,185.738 C 194.192,184.429 193.536,183.122 192.882,181.812 C 192.241,180.534 192.194,179.902 190.749,179.902 C 187.06,179.902 183.371,179.902 179.677,179.902"
         style="fill:#ffffff" />
      <path
         id="path2554"
         d="M 179.677,179.902 C 187.764,187.91 195.85,195.914 203.938,203.92 C 199.933,195.914 195.929,187.91 191.927,179.902"
         style="fill:none;stroke:#010101;stroke-width:0.2402;stroke-linecap:square;stroke-miterlimit:10" />
      <path
         id="path2556"
         d="M 179.677,179.902 C 187.764,187.91 195.85,195.914 203.938,203.92 C 197.876,200.952 191.815,197.982 185.753,195.014 C 184.444,194.372 183.137,193.733 181.829,193.091 C 180.548,192.464 179.923,192.415 179.892,190.981 C 179.822,187.287 179.75,183.596 179.677,179.902"
         style="fill:#010101" />
      <path
         id="path2558"
         d="M 179.677,179.902 C 187.764,187.91 195.85,195.914 203.938,203.92 C 195.929,199.997 187.925,196.077 179.917,192.154"
         style="fill:none;stroke:#010101;stroke-width:0.2402;stroke-linecap:square;stroke-miterlimit:10" />
      <path
         id="path2560"
         d="M 155.9,155.407 C 155.9,203.679 155.9,251.954 155.9,300.226 C 161.017,274.585 166.138,248.943 171.254,223.302 C 173.816,210.474 176.379,197.646 178.939,184.816 C 179.233,183.337 179.529,181.853 179.825,180.374 C 180.017,179.412 178.374,178.326 177.747,177.687 C 175.421,175.314 173.093,172.939 170.766,170.566 C 166.179,165.888 161.593,161.209 157.003,156.529 C 156.634,156.156 156.267,155.78 155.9,155.407"
         style="fill:#ffffff" />
      <path
         id="path2562"
         d="M 155.9,155.407 C 208.021,155.646 260.14,155.885 312.257,156.127 C 286.357,151.424 260.454,146.726 234.552,142.026 C 221.614,139.677 208.671,137.329 195.732,134.98 C 192.748,134.438 189.764,133.896 186.783,133.356 C 185.291,133.085 183.801,132.814 182.305,132.544 C 180.706,132.253 180.138,131.903 178.992,133.008 C 174.432,137.434 169.871,141.856 165.31,146.28 C 162.173,149.323 159.039,152.367 155.9,155.407"
         style="fill:#ffffff" />
      <path
         id="path2564"
         d="M 156.38,155.407 C 104.26,155.646 52.141,155.885 0.021,156.127 C 25.944,160.803 51.867,165.477 77.79,170.148 C 90.705,172.476 103.621,174.806 116.536,177.134 C 119.586,177.685 122.636,178.234 125.685,178.785 C 127.21,179.059 128.735,179.335 130.26,179.608 C 131.897,179.903 131.918,179.865 132.996,178.787 C 137.521,174.259 142.05,169.733 146.578,165.207 C 149.846,161.941 153.114,158.676 156.38,155.407"
         style="fill:#ffffff" />
      <path
         id="path2566"
         d="M 155.9,155.407 C 155.9,103.611 155.9,51.816 155.9,0.021 C 151.19,25.931 146.477,51.841 141.766,77.752 C 139.416,90.678 137.064,103.605 134.714,116.533 C 134.152,119.624 133.59,122.714 133.028,125.807 C 132.747,127.351 132.466,128.898 132.184,130.442 C 131.839,132.343 132.179,132.399 133.467,133.649 C 138.073,138.117 142.681,142.584 147.287,147.055 C 150.159,149.839 153.028,152.624 155.9,155.407"
         style="fill:#ffffff" />
    </g>
  </g>
</svg>
